<?xml version="1.0" encoding="utf-8"?>
<!-- Generator: Adobe Illustrator 24.1.1, SVG Export Plug-In . SVG Version: 6.00 Build 0)  -->
<svg version="1.1" id="Layer_1" focusable="false" xmlns="http://www.w3.org/2000/svg" xmlns:xlink="http://www.w3.org/1999/xlink"
	 x="0px" y="0px" viewBox="0 0 512 512" style="enable-background:new 0 0 512 512;" xml:space="preserve">
<style type="text/css">
	.st0{fill:#03ADFC;}
</style>
<path class="st0" d="M488,64h-8v20c0,6.6-5.4,12-12,12h-40c-6.6,0-12-5.4-12-12V64H96v20c0,6.6-5.4,12-12,12H44c-6.6,0-12-5.4-12-12
	V64h-8C10.7,64,0,74.7,0,88v336c0,13.3,10.7,24,24,24h8v-20c0-6.6,5.4-12,12-12h40c6.6,0,12,5.4,12,12v20h320v-20
	c0-6.6,5.4-12,12-12h40c6.6,0,12,5.4,12,12v20h8c13.3,0,24-10.7,24-24V88C512,74.7,501.3,64,488,64z M96,372c0,6.6-5.4,12-12,12H44
	c-6.6,0-12-5.4-12-12v-40c0-6.6,5.4-12,12-12h40c6.6,0,12,5.4,12,12V372z M96,276c0,6.6-5.4,12-12,12H44c-6.6,0-12-5.4-12-12v-40
	c0-6.6,5.4-12,12-12h40c6.6,0,12,5.4,12,12V276z M96,180c0,6.6-5.4,12-12,12H44c-6.6,0-12-5.4-12-12v-40c0-6.6,5.4-12,12-12h40
	c6.6,0,12,5.4,12,12V180z M368,388c0,6.6-5.4,12-12,12H156c-6.6,0-12-5.4-12-12v-96c0-6.6,5.4-12,12-12h200c6.6,0,12,5.4,12,12V388z
	 M368,220c0,6.6-5.4,12-12,12H156c-6.6,0-12-5.4-12-12v-96c0-6.6,5.4-12,12-12h200c6.6,0,12,5.4,12,12V220z M480,372
	c0,6.6-5.4,12-12,12h-40c-6.6,0-12-5.4-12-12v-40c0-6.6,5.4-12,12-12h40c6.6,0,12,5.4,12,12V372z M480,276c0,6.6-5.4,12-12,12h-40
	c-6.6,0-12-5.4-12-12v-40c0-6.6,5.4-12,12-12h40c6.6,0,12,5.4,12,12V276z M480,180c0,6.6-5.4,12-12,12h-40c-6.6,0-12-5.4-12-12v-40
	c0-6.6,5.4-12,12-12h40c6.6,0,12,5.4,12,12V180z"/>
</svg>
