<?xml version="1.0" encoding="utf-8"?>
<!-- Generator: Adobe Illustrator 24.1.1, SVG Export Plug-In . SVG Version: 6.00 Build 0)  -->
<svg version="1.1" id="Layer_1" focusable="false" xmlns="http://www.w3.org/2000/svg" xmlns:xlink="http://www.w3.org/1999/xlink"
	 x="0px" y="0px" viewBox="0 0 640 512" style="enable-background:new 0 0 640 512;" xml:space="preserve">
<style type="text/css">
	.st0{fill:#07ADFC;}
</style>
<path class="st0" d="M480.1,96H160C71.6,96,0,167.6,0,256s71.6,160,160,160c43,0,84.2-17.3,114.3-48h91.5
	c61.9,63.1,163.2,64.1,226.3,2.3s64.1-163.2,2.3-226.3C564.2,113.3,523,96,480.1,96z M248,268c0,6.6-5.4,12-12,12h-52v52
	c0,6.6-5.4,12-12,12h-24c-6.6,0-12-5.4-12-12v-52H84c-6.6,0-12-5.4-12-12v-24c0-6.6,5.4-12,12-12l0,0h52v-52c0-6.6,5.4-12,12-12h24
	c6.6,0,12,5.4,12,12v52h52c6.6,0,12,5.4,12,12l0,0V268z M464,344c-22.1,0-40-17.9-40-40s17.9-40,40-40s40,17.9,40,40
	S486.1,344,464,344z M528,248c-22.1,0-40-17.9-40-40s17.9-40,40-40c22.1,0,40,17.9,40,40S550.1,248,528,248z"/>
</svg>
