<?xml version="1.0" encoding="utf-8"?>
<!-- Generator: Adobe Illustrator 24.1.1, SVG Export Plug-In . SVG Version: 6.00 Build 0)  -->
<svg version="1.1" id="Layer_1" xmlns="http://www.w3.org/2000/svg" xmlns:xlink="http://www.w3.org/1999/xlink" x="0px" y="0px"
	 viewBox="0 0 472.4 205" style="enable-background:new 0 0 472.4 205;" xml:space="preserve">
<style type="text/css">
	.st0{fill:#FFFFFF;}
</style>
<g id="paths">
	<path class="st0" d="M75.9,91.4h24.3v5.5h-31V45.7H76L75.9,91.4z"/>
	<path class="st0" d="M136.8,73.2h-22.2v18.1h25.8v5.5h-32.6V45.7H140v5.5h-25.4v16.5h22.2V73.2z"/>
	<path class="st0" d="M157.5,45.7l16.7,41.8l16.7-41.8h8.7v38.1h-6.8V77l0.6-21.5L176.6,97h-5.2l-16.6-41.5l0.7,21.4v19.9h-6.7V45.7
		H157.5z"/>
	<path class="st0" d="M234.3,146.2h24.3v5.5h-31v-43.9h6.8L234.3,146.2z"/>
	<path class="st0" d="M273.5,151.7h-6.8v-51.2h6.8V151.7z"/>
	<path class="st0" d="M294.6,100.5l16.7,41.8l16.7-41.8h8.8v51.2H330v-19.9l0.6-21.5l-16.8,41.4h-5.2l-16.8-41.3l0.7,21.4v19.9h-6.8
		v-51.2H294.6z"/>
	<path class="st0" d="M377.7,128.1h-22.2v18.1h25.7v5.5h-32.5v-51.2h32.2v5.5h-25.4v16.5h22.2L377.7,128.1L377.7,128.1z"/>
	<path class="st0" d="M199.6,98.9l-0.5,1.4c-0.3,0.5-0.6,1.1-1,1.5c-0.2,0.5-0.7,0.8-1.2,0.8c-1.2,0.1-2.5-0.3-3.4-1.1
		c-0.5-0.5-0.9-1.1-1.2-1.8c-0.3-0.7-0.5-1.4-0.6-2.1c-0.1-0.5-0.1-1-0.2-1.5v-0.9c0-0.5,0-1,0.1-1.5c0-0.1,0.1-0.3,0.2-0.8
		c0.1-1,0.4-2,0.9-2.9c0.9-1.8,1.8-2.7,2.7-2.7h0.2c0.1,0,0.1,0,0.2,0h0.5c0.5,0,1,0.1,1.6,0.2c0.3,0.1,0.6,0.1,0.9,0.2l0.9,0.2
		c0.4,0,0.8,0.1,1.1,0.2c0.5,0.1,0.7,0.3,0.8,0.3c0.1,0.3,0.2,0.5,0.2,0.8c0.1,0.5,0.2,0.8,0.2,1s0.1,0.4,0.1,0.6
		c0.2,1.7,0.5,3.3,0.9,4.9c0,0.1,0,0.2,0.1,0.3c0.1,0.3,0.1,0.6,0.3,0.8c0.1,0.4,0.3,0.8,0.3,1.1c0.1,0.4,0.2,0.8,0.4,1.2
		s0.4,0.9,0.6,1.3c0.5,0.8,0.3,1.3-0.8,1.7c-0.2,0.1-0.5,0.1-0.8,0.1c-0.2-0.1-0.5-0.2-0.7-0.4c-0.3,0-0.5-0.2-0.7-0.4l-0.3-0.1
		c-0.1-0.1-0.3-0.2-0.4-0.3c-0.1,0-0.5-1-1.3-2.9C199.6,98.4,199.6,98.6,199.6,98.9z M198.5,92c0-0.4-0.1-0.8-0.4-1.2
		c-0.3-0.3-0.7-0.5-1.2-0.5c-0.3,0.4-0.5,0.8-0.7,1.2c-0.3,0.7-0.5,1.4-0.5,2.2c-0.2,1.1-0.4,2.3-0.4,3.5c0,0.9,0.2,1.8,0.6,2.6
		c0,0.1,0.1,0.1,0.1,0.1s0.3-0.2,0.6-0.7C197.9,97,198.5,94.5,198.5,92z"/>
	<path class="st0" d="M215.5,101l-0.2-0.6l-0.4-2.4c-0.1-0.4-0.2-0.8-0.2-1.2l0.1-1.6c0-0.1,0-0.3,0-0.4c-0.3,0-0.7,0.3-1.3,1
		c-0.1,0.1-0.1,0.2-0.2,0.4c-1.1,1.8-1.7,3.7-1.8,5.8c-0.2,0.4-0.4,0.6-0.8,0.6c-0.6-0.1-1-0.2-1.1-0.2h-0.3h-0.5
		c-0.5,0-0.9-0.2-1.1-0.7c-0.1-0.3-0.2-0.6-0.1-0.9v-0.5l-0.1-2v-3c0-0.3,0-0.8-0.1-1.3s-0.1-1.4,0-2.6c0.1-0.6,0.1-1.3,0-1.9
		c-0.1-0.1-0.1-0.2-0.1-0.3s0-0.3,0.1-0.4c0.1-0.2,0.4-0.3,1-0.5c0.2-0.2,0.5-0.3,0.8-0.3c0.4,0.1,0.9,0.3,1.3,0.4
		c0.4,0.1,0.5,0.4,0.5,1c0.1,0.8,0,1.7,0,2.5c0,0.5,0,1.4,0,2.8c1.8-3.4,3.4-5.5,4.8-6.2c0.1-0.1,0.3-0.2,0.5-0.2
		c0.3,0,0.6,0.2,0.8,0.4c0.2,0.2,0.4,0.3,0.6,0.5c0.1,0.1,0.3,0.2,0.4,0.4c0.1,0.1,0.2,0.2,0.4,0.3c0.3,0.5,0.4,1.6,0.2,3.4
		c0,0.3,0,0.5-0.1,0.7c0,0.4,0,0.9,0,1.3c0,0.7,0,1.1,0,1.4c0.1,0.8,0.1,1.3,0.1,1.5l0.2,1.4c0.2,0.4,0.3,0.8,0.4,1.3
		c0.1,0.5,0.3,1,0.6,1.4c0.2,0.3,0.1,0.7-0.2,0.9l0,0c-0.5,0.2-0.7,0.3-0.8,0.3s-0.2,0-0.4,0.1c-0.4,0.1-0.9,0.1-1.3,0
		c-0.4-0.1-0.7-0.3-0.9-0.6l-0.5-0.5c-0.2-0.3-0.3-0.6-0.4-0.9C215.5,101.2,215.4,101.1,215.5,101z"/>
	<path class="st0" d="M231.8,77.6c0.3-0.1,0.6-0.1,0.9-0.1c0.2,0,0.5,0,0.7-0.1c0.4,0.4,0.7,0.8,0.9,1.3l0.3,0.9
		c0.2,0.1,0.3,0.3,0.3,0.5c0,0.4,0.1,0.7,0.1,0.9c0,0.3,0,0.7,0,1c0,0.6-0.1,2-0.3,4.2s-0.3,3.8-0.5,4.7l0.2,2
		c0.2,1.1,0.4,2.1,0.7,3.2c0.2,0.9,0.5,1.7,1,2.5l0.1,0.3l0.5,0.9c0.2,0.3,0.2,0.7,0.2,1.1c0,0.3,0,0.5-0.1,0.8
		c-0.3,0.7-0.7,1-1,1.1s-0.5,0.1-0.8,0c-0.2,0-0.5-0.1-0.7-0.2c-0.1,0-0.2,0-0.3,0c-0.4,0.1-0.6,0-0.7-0.3c-0.2-0.2-0.4-0.5-0.5-0.8
		c-0.2-0.4-0.4-0.7-0.6-1l-0.2-0.4c-0.1-0.4-0.1-0.7-0.2-0.7c0-0.1,0-0.1-0.1-0.2l-1.3,2c-0.3,0.5-0.6,1-0.9,1.4L229,103
		c-0.4,0.2-0.8,0.2-1.3,0.1c-0.2,0-0.4,0-0.6,0l-2-0.4c-0.5-0.4-0.9-0.8-1.1-1.4c-0.2-0.2-0.3-0.5-0.3-0.8c-0.1-0.5-0.2-0.9-0.3-1.4
		l-0.1-0.5v-0.2v-0.5c0-0.2,0-0.4-0.1-0.6V97v-0.6c0-0.3,0.1-0.6,0.1-0.8c0-0.4,0-0.7,0-1.1c0-0.3,0-0.6,0-0.8
		c-0.1-0.2-0.1-0.4,0-0.6c-0.1-0.3-0.1-0.6,0-0.9c0.1-0.6,0.3-1.2,0.6-1.8c0-0.5,0.1-1,0.5-1.3c0.1-0.2,0.2-0.4,0.4-0.5
		s0.3-0.2,0.5-0.3l0.9-0.6c0.8-0.3,1.7-0.3,2.5-0.1l1.4,0.5c0.1-1.2,0.1-2.4,0-3.6c0-0.3,0-0.9,0.1-1.9s0.1-1.9,0.2-2.8l0.4-1.5
		c0-0.2,0-0.4,0.1-0.6L231.8,77.6z M227.2,96.2c0,0.4,0,0.8-0.1,1.2c0,0.7,0.1,1.5,0.4,2.2c0.1,0.5,0.2,0.9,0.4,1.3
		c0.2,0,0.3-0.2,0.5-0.5c0.1-0.2,0.2-0.3,0.3-0.5c0.3-0.3,0.5-0.6,0.7-1c0.1-0.3,0.3-0.6,0.4-0.9c0.1-0.5,0.2-0.9,0.5-1.3
		c0.2-0.3,0.4-0.7,0.6-1c0.2-0.4,0.2-0.8,0.2-1.2c-0.1-0.6-0.1-1.2-0.3-1.7c-0.1-0.1-0.1-0.4-0.3-0.8c-0.1-0.3-0.3-0.7-0.5-0.9
		c-0.2-0.2-0.4-0.2-0.6-0.2c-0.2,0-0.5,0.4-0.8,1c-0.4,0.7-0.6,1.5-0.8,2.2s-0.3,1.2-0.3,1.3c-0.1,0.2-0.1,0.4-0.1,0.6L227.2,96.2z"
		/>
</g>
</svg>
