<?xml version="1.0" encoding="utf-8"?>
<!-- Generator: Adobe Illustrator 24.1.1, SVG Export Plug-In . SVG Version: 6.00 Build 0)  -->
<svg version="1.1" id="Layer_1" focusable="false" xmlns="http://www.w3.org/2000/svg" xmlns:xlink="http://www.w3.org/1999/xlink"
	 x="0px" y="0px" viewBox="0 0 320 512" style="enable-background:new 0 0 320 512;" xml:space="preserve">
<style type="text/css">
	.st0{fill:#FF8C1B;}
</style>
<path class="st0" d="M272,0H48C21.5,0,0,21.5,0,48v416c0,26.5,21.5,48,48,48h224c26.5,0,48-21.5,48-48V48C320,21.5,298.5,0,272,0z
	 M160,480c-17.7,0-32-14.3-32-32s14.3-32,32-32s32,14.3,32,32S177.7,480,160,480z M272,372c0,6.6-5.4,12-12,12H60
	c-6.6,0-12-5.4-12-12V60c0-6.6,5.4-12,12-12h200c6.6,0,12,5.4,12,12V372z"/>
</svg>
