<?xml version="1.0" encoding="utf-8"?>
<!-- Generator: Adobe Illustrator 24.1.1, SVG Export Plug-In . SVG Version: 6.00 Build 0)  -->
<svg version="1.1" id="Layer_1" focusable="false" xmlns="http://www.w3.org/2000/svg" xmlns:xlink="http://www.w3.org/1999/xlink"
	 x="0px" y="0px" viewBox="0 0 576 512" style="enable-background:new 0 0 576 512;" xml:space="preserve">
<style type="text/css">
	.st0{fill:#FF8C1B;}
</style>
<path class="st0" d="M33.2,448h485.7c13.3,0,24-10.7,24-24V88c0-13.3-10.7-24-24-24h-440C58,64,40.3,77.4,33.7,96 M485.5,400H68.9
	c0.4-2.6,0.6-5.3,0.6-8V112h416V400z M129.5,280h136c6.6,0,12-5.4,12-12v-96c0-6.6-5.4-12-12-12h-136c-6.6,0-12,5.4-12,12v96
	C117.5,274.6,122.9,280,129.5,280z M157.5,200h80v40h-80V200z M117.5,340v-24c0-6.6,5.4-12,12-12h136c6.6,0,12,5.4,12,12v24
	c0,6.6-5.4,12-12,12h-136C122.9,352,117.5,346.6,117.5,340z M309.5,340v-24c0-6.6,5.4-12,12-12h104c6.6,0,12,5.4,12,12v24
	c0,6.6-5.4,12-12,12h-104C314.9,352,309.5,346.6,309.5,340z M309.5,196v-24c0-6.6,5.4-12,12-12h104c6.6,0,12,5.4,12,12v24
	c0,6.6-5.4,12-12,12h-104C314.9,208,309.5,202.6,309.5,196z M309.5,268v-24c0-6.6,5.4-12,12-12h104c6.6,0,12,5.4,12,12v24
	c0,6.6-5.4,12-12,12h-104C314.9,280,309.5,274.6,309.5,268z"/>
</svg>
