<svg id="e0bh6guplwnu1" xmlns="http://www.w3.org/2000/svg" xmlns:xlink="http://www.w3.org/1999/xlink" viewBox="0 0 210 297" shape-rendering="geometricPrecision" text-rendering="geometricPrecision"><style><![CDATA[#e0bh6guplwnu4_to {animation: e0bh6guplwnu4_to__to 3000ms linear infinite normal forwards}@keyframes e0bh6guplwnu4_to__to { 0% {offset-distance: 0%} 100% {offset-distance: 100%} }]]></style><defs><linearGradient id="e0bh6guplwnu4-fill" x1="16.352348" y1="105.291462" x2="61.035568" y2="105.291462" spreadMethod="pad" gradientUnits="userSpaceOnUse"><stop id="e0bh6guplwnu4-fill-0" offset="0%" stop-color="rgb(135,222,170)"/><stop id="e0bh6guplwnu4-fill-1" offset="100%" stop-color="rgb(204,211,95)"/></linearGradient></defs><g id="e0bh6guplwnu2"><g id="e0bh6guplwnu3" transform="matrix(1 0 0 1 13.74042129000001 -55.45948791500001)" clip-path="url(#e0bh6guplwnu5)"><g id="e0bh6guplwnu4_to" style="offset-path:path('M91.259138,297.652826L91.260070,110.445188');offset-rotate:auto"><rect id="e0bh6guplwnu4" style="mix-blend-mode:multiply" width="96.481600" height="120.247000" rx="0" ry="0" transform="skewX(-0.021429) skewY(0) scale(-1,1) translate(-48.308771,-60.123992)" fill="url(#e0bh6guplwnu4-fill)" stroke="rgb(1,0,0)" stroke-width="0" stroke-linejoin="round"/></g><clipPath id="e0bh6guplwnu5"><path id="e0bh6guplwnu6" d="M-156.145450,-92.499158C-156.144526,-92.129455,-156.290837,-91.774653,-156.552060,-91.513134L-200.564460,-47.551785C-201.107801,-47.009114,-201.988341,-47.009785,-202.531260,-47.553285L-246.509090,-91.580194C-247.051974,-92.123725,-247.051651,-93.004262,-246.508370,-93.546989L-202.497920,-137.510310C-201.954717,-138.053119,-201.074177,-138.052672,-200.531120,-137.509310L-156.551340,-93.480444C-156.291742,-93.219975,-156.145808,-92.867347,-156.145450,-92.499673ZM-159.502870,-92.499807L-201.514630,-134.558450L-243.559510,-92.560483L-201.545790,-50.501834Z" transform="matrix(1 0 0 1 292.82625868999992 296.55793999499997)" fill="rgb(1,0,0)" stroke="none" stroke-width="2.781300" stroke-linejoin="round"/></clipPath></g></g></svg>